<svg xmlns="http://www.w3.org/2000/svg" xmlns:xlink="http://www.w3.org/1999/xlink" width="253pt" height="44pt" viewBox="0.00 0.00 253.00 44.00">
<g id="graph0" class="graph" transform="scale(1 1) rotate(0) translate(4 40)">
<polygon fill="white" stroke="transparent" points="-4,4 -4,-40 249,-40 249,4 -4,4"/>
<!-- impute -->
<g id="node1" class="node">
<title>impute</title>
<g id="a_node1"><a xlink:title="SimpleImputer()">
<polygon fill="none" stroke="black" points="65,-36 0,-36 0,0 65,0 65,-36"/>
<text text-anchor="middle" x="32.5" y="-14.3" font-family="SANS" font-size="14.00">impute</text>
</a>
</g>
</g>
<!-- pca -->
<g id="node2" class="node">
<title>pca</title>
<g id="a_node2"><a xlink:title="PCA()">
<polygon fill="none" stroke="black" points="155,-36 101,-36 101,0 155,0 155,-36"/>
<text text-anchor="middle" x="128" y="-14.3" font-family="SANS" font-size="14.00">pca</text>
</a>
</g>
</g>
<!-- impute&#45;&gt;pca -->
<g id="edge1" class="edge">
<title>impute-&gt;pca</title>
<path fill="none" stroke="black" d="M65.15,-18C73.44,-18 82.44,-18 90.93,-18"/>
<polygon fill="black" stroke="black" points="90.97,-21.5 100.97,-18 90.97,-14.5 90.97,-21.5"/>
</g>
<!-- lr -->
<g id="node3" class="node">
<title>lr</title>
<g id="a_node3"><a xlink:title="LogisticRegression()">
<ellipse fill="none" stroke="black" cx="218" cy="-18" rx="27" ry="18"/>
<text text-anchor="middle" x="218" y="-14.3" font-family="SANS" font-size="14.00">lr</text>
</a>
</g>
</g>
<!-- pca&#45;&gt;lr -->
<g id="edge2" class="edge">
<title>pca-&gt;lr</title>
<path fill="none" stroke="black" d="M155.4,-18C163.39,-18 172.31,-18 180.82,-18"/>
<polygon fill="black" stroke="black" points="180.92,-21.5 190.92,-18 180.92,-14.5 180.92,-21.5"/>
</g>
</g>
</svg>