<svg xmlns="http://www.w3.org/2000/svg" xmlns:xlink="http://www.w3.org/1999/xlink" width="279pt" height="98pt" viewBox="0.00 0.00 279.00 98.00">
<g id="graph0" class="graph" transform="scale(1 1) rotate(0) translate(4 94)">
<polygon fill="white" stroke="transparent" points="-4,4 -4,-94 275,-94 275,4 -4,4"/>
<!-- impute -->
<g id="node1" class="node">
<title>impute</title>
<g id="a_node1"><a xlink:title="SimpleImputer()">
<polygon fill="none" stroke="black" points="65,-63 0,-63 0,-27 65,-27 65,-63"/>
<text text-anchor="middle" x="32.5" y="-41.3" font-family="SANS" font-size="14.00">impute</text>
</a>
</g>
</g>
<!-- vitals -->
<g id="node2" class="node">
<title>vitals</title>
<g id="a_node2"><a xlink:title="'passthrough'">
<polygon fill="none" stroke="black" points="181,-72 161,-90 121,-90 101,-72 121,-54 161,-54 181,-72"/>
<text text-anchor="middle" x="141" y="-68.3" font-family="SANS" font-size="14.00">vitals</text>
</a>
</g>
</g>
<!-- impute&#45;&gt;vitals -->
<g id="edge1" class="edge">
<title>impute-&gt;vitals</title>
<path fill="none" stroke="black" d="M65.17,-53.03C75.98,-55.77 88.22,-58.87 99.62,-61.76"/>
<polygon fill="black" stroke="black" points="98.82,-65.17 109.37,-64.24 100.54,-58.38 98.82,-65.17"/>
</g>
<!-- blood -->
<g id="node3" class="node">
<title>blood</title>
<g id="a_node3"><a xlink:title="PCA(n_components=2, random_state=0)">
<polygon fill="none" stroke="black" points="168.5,-36 113.5,-36 113.5,0 168.5,0 168.5,-36"/>
<text text-anchor="middle" x="141" y="-14.3" font-family="SANS" font-size="14.00">blood</text>
</a>
</g>
</g>
<!-- impute&#45;&gt;blood -->
<g id="edge2" class="edge">
<title>impute-&gt;blood</title>
<path fill="none" stroke="black" d="M65.17,-36.97C77.14,-33.94 90.87,-30.46 103.27,-27.31"/>
<polygon fill="black" stroke="black" points="104.48,-30.62 113.31,-24.77 102.76,-23.83 104.48,-30.62"/>
</g>
<!-- lr -->
<g id="node4" class="node">
<title>lr</title>
<g id="a_node4"><a xlink:title="LogisticRegression(random_state=0)">
<ellipse fill="none" stroke="black" cx="244" cy="-45" rx="27" ry="18"/>
<text text-anchor="middle" x="244" y="-41.3" font-family="SANS" font-size="14.00">lr</text>
</a>
</g>
</g>
<!-- vitals&#45;&gt;lr -->
<g id="edge3" class="edge">
<title>vitals-&gt;lr</title>
<path fill="none" stroke="black" d="M172.3,-63.9C183.72,-60.85 196.78,-57.36 208.55,-54.21"/>
<polygon fill="black" stroke="black" points="209.72,-57.52 218.48,-51.55 207.92,-50.76 209.72,-57.52"/>
</g>
<!-- blood&#45;&gt;lr -->
<g id="edge4" class="edge">
<title>blood-&gt;lr</title>
<path fill="none" stroke="black" d="M168.54,-25.09C180.93,-28.41 195.82,-32.39 209.02,-35.92"/>
<polygon fill="black" stroke="black" points="208.15,-39.31 218.72,-38.51 209.96,-32.54 208.15,-39.31"/>
</g>
</g>
</svg>