<?xml version="1.0" encoding="UTF-8" standalone="no"?>
<!DOCTYPE svg PUBLIC "-//W3C//DTD SVG 1.1//EN"
 "http://www.w3.org/Graphics/SVG/1.1/DTD/svg11.dtd">
<!-- Generated by graphviz version 2.43.0 (0)
 -->
<!-- Pages: 1 -->
<svg width="330pt" height="130pt"
 viewBox="0.00 0.00 330.12 130.00" xmlns="http://www.w3.org/2000/svg" xmlns:xlink="http://www.w3.org/1999/xlink">
<g id="graph0" class="graph" transform="scale(1 1) rotate(0) translate(4 126)">
<polygon fill="white" stroke="transparent" points="-4,4 -4,-126 326.12,-126 326.12,4 -4,4"/>
<!-- pass -->
<g id="node1" class="node">
<title>pass</title>
<g id="a_node1"><a xlink:title="&#39;passthrough&#39;">
<polygon fill="none" stroke="black" points="90.62,-61 69.34,-83 26.78,-83 5.51,-61 26.78,-39 69.34,-39 90.62,-61"/>
<polygon fill="none" stroke="black" points="96.18,-61 71.04,-87 25.08,-87 -0.06,-61 25.08,-35 71.04,-35 96.18,-61"/>
<text text-anchor="middle" x="48.06" y="-57.3" font-family="SANS" font-size="14.00">pass</text>
</a>
</g>
</g>
<!-- rf -->
<g id="node2" class="node">
<title>rf</title>
<g id="a_node2"><a xlink:title="RandomForestRegressor(max_depth=6, random_state=0)">
<ellipse fill="none" stroke="black" cx="167.12" cy="-96" rx="31" ry="22"/>
<ellipse fill="none" stroke="black" cx="167.12" cy="-96" rx="35" ry="26"/>
<text text-anchor="middle" x="167.12" y="-92.3" font-family="SANS" font-size="14.00">rf</text>
</a>
</g>
</g>
<!-- pass&#45;&gt;rf -->
<g id="edge1" class="edge">
<title>pass&#45;&gt;rf</title>
<path fill="none" stroke="black" d="M85.78,-71.98C98.05,-75.65 111.82,-79.76 124.45,-83.54"/>
<polygon fill="black" stroke="black" points="123.69,-86.97 134.28,-86.48 125.7,-80.26 123.69,-86.97"/>
</g>
<!-- svr -->
<g id="node3" class="node">
<title>svr</title>
<g id="a_node3"><a xlink:title="SVR()">
<ellipse fill="none" stroke="black" cx="167.12" cy="-26" rx="31" ry="22"/>
<ellipse fill="none" stroke="black" cx="167.12" cy="-26" rx="35" ry="26"/>
<text text-anchor="middle" x="167.12" y="-22.3" font-family="SANS" font-size="14.00">svr</text>
</a>
</g>
</g>
<!-- pass&#45;&gt;svr -->
<g id="edge2" class="edge">
<title>pass&#45;&gt;svr</title>
<path fill="none" stroke="black" d="M85.78,-50.02C98.05,-46.35 111.82,-42.24 124.45,-38.46"/>
<polygon fill="black" stroke="black" points="125.7,-41.74 134.28,-35.52 123.69,-35.03 125.7,-41.74"/>
</g>
<!-- meta -->
<g id="node4" class="node">
<title>meta</title>
<g id="a_node4"><a xlink:title="LinearRegression()">
<ellipse fill="none" stroke="black" cx="280.12" cy="-61" rx="38" ry="22"/>
<ellipse fill="none" stroke="black" cx="280.12" cy="-61" rx="42" ry="26"/>
<text text-anchor="middle" x="280.12" y="-57.3" font-family="SANS" font-size="14.00">meta</text>
</a>
</g>
</g>
<!-- rf&#45;&gt;meta -->
<g id="edge3" class="edge">
<title>rf&#45;&gt;meta</title>
<path fill="none" stroke="black" d="M199.63,-86.06C209.94,-82.81 221.62,-79.13 232.79,-75.61"/>
<polygon fill="black" stroke="black" points="233.95,-78.91 242.43,-72.57 231.84,-72.24 233.95,-78.91"/>
</g>
<!-- svr&#45;&gt;meta -->
<g id="edge4" class="edge">
<title>svr&#45;&gt;meta</title>
<path fill="none" stroke="black" d="M199.63,-35.94C209.94,-39.19 221.62,-42.87 232.79,-46.39"/>
<polygon fill="black" stroke="black" points="231.84,-49.76 242.43,-49.43 233.95,-43.09 231.84,-49.76"/>
</g>
</g>
</svg>
