<?xml version="1.0" encoding="UTF-8" standalone="no"?>
<!DOCTYPE svg PUBLIC "-//W3C//DTD SVG 1.1//EN"
 "http://www.w3.org/Graphics/SVG/1.1/DTD/svg11.dtd">
<!-- Generated by graphviz version 2.43.0 (0)
 -->
<!-- Pages: 1 -->
<svg width="332pt" height="130pt"
 viewBox="0.00 0.00 332.12 130.00" xmlns="http://www.w3.org/2000/svg" xmlns:xlink="http://www.w3.org/1999/xlink">
<g id="graph0" class="graph" transform="scale(1 1) rotate(0) translate(4 126)">
<polygon fill="white" stroke="transparent" points="-4,4 -4,-126 328.12,-126 328.12,4 -4,4"/>
<!-- pass -->
<g id="node1" class="node">
<title>pass</title>
<g id="a_node1"><a xlink:title="&#39;passthrough&#39;">
<polygon fill="none" stroke="black" points="90.62,-61 69.34,-83 26.78,-83 5.51,-61 26.78,-39 69.34,-39 90.62,-61"/>
<polygon fill="none" stroke="black" points="96.18,-61 71.04,-87 25.08,-87 -0.06,-61 25.08,-35 71.04,-35 96.18,-61"/>
<text text-anchor="middle" x="48.06" y="-57.3" font-family="SANS" font-size="14.00">pass</text>
</a>
</g>
</g>
<!-- knn -->
<g id="node2" class="node">
<title>knn</title>
<g id="a_node2"><a xlink:title="KNeighborsRegressor(n_neighbors=3)">
<ellipse fill="none" stroke="black" cx="168.12" cy="-96" rx="32" ry="22"/>
<ellipse fill="none" stroke="black" cx="168.12" cy="-96" rx="36" ry="26"/>
<text text-anchor="middle" x="168.12" y="-92.3" font-family="SANS" font-size="14.00">knn</text>
</a>
</g>
</g>
<!-- pass&#45;&gt;knn -->
<g id="edge1" class="edge">
<title>pass&#45;&gt;knn</title>
<path fill="none" stroke="black" d="M85.77,-71.88C98.05,-75.52 111.85,-79.61 124.55,-83.38"/>
<polygon fill="black" stroke="black" points="123.86,-86.82 134.44,-86.31 125.85,-80.11 123.86,-86.82"/>
</g>
<!-- svr -->
<g id="node3" class="node">
<title>svr</title>
<g id="a_node3"><a xlink:title="SVR()">
<ellipse fill="none" stroke="black" cx="168.12" cy="-26" rx="31" ry="22"/>
<ellipse fill="none" stroke="black" cx="168.12" cy="-26" rx="35" ry="26"/>
<text text-anchor="middle" x="168.12" y="-22.3" font-family="SANS" font-size="14.00">svr</text>
</a>
</g>
</g>
<!-- pass&#45;&gt;svr -->
<g id="edge2" class="edge">
<title>pass&#45;&gt;svr</title>
<path fill="none" stroke="black" d="M85.77,-50.12C98.39,-46.38 112.61,-42.16 125.59,-38.31"/>
<polygon fill="black" stroke="black" points="126.63,-41.65 135.22,-35.46 124.64,-34.94 126.63,-41.65"/>
</g>
<!-- meta -->
<g id="node4" class="node">
<title>meta</title>
<g id="a_node4"><a xlink:title="LinearRegression()">
<ellipse fill="none" stroke="black" cx="282.12" cy="-61" rx="38" ry="22"/>
<ellipse fill="none" stroke="black" cx="282.12" cy="-61" rx="42" ry="26"/>
<text text-anchor="middle" x="282.12" y="-57.3" font-family="SANS" font-size="14.00">meta</text>
</a>
</g>
</g>
<!-- knn&#45;&gt;meta -->
<g id="edge3" class="edge">
<title>knn&#45;&gt;meta</title>
<path fill="none" stroke="black" d="M201.52,-85.88C211.81,-82.66 223.41,-79.04 234.5,-75.57"/>
<polygon fill="black" stroke="black" points="235.57,-78.9 244.07,-72.58 233.48,-72.22 235.57,-78.9"/>
</g>
<!-- svr&#45;&gt;meta -->
<g id="edge4" class="edge">
<title>svr&#45;&gt;meta</title>
<path fill="none" stroke="black" d="M200.62,-35.84C211.13,-39.13 223.07,-42.86 234.48,-46.42"/>
<polygon fill="black" stroke="black" points="233.73,-49.86 244.32,-49.5 235.82,-43.18 233.73,-49.86"/>
</g>
</g>
</svg>
